<svg width="1323" height="1582" viewBox="0 0 1323 1582" fill="none" xmlns="http://www.w3.org/2000/svg">
<path d="M770.866 139.173V112.417C770.866 50.4754 720.396 0 658.461 0C596.525 0 546.056 50.4754 546.056 112.417V140.297C233.457 195.831 0.77832 471.366 0.77832 791.194C0.77832 1111.02 233.569 1386.56 546.056 1442.09V1469.07C546.056 1531.01 596.525 1581.49 658.461 1581.49C720.396 1581.49 770.866 1531.01 770.866 1469.07V1443.21C1087.4 1390.6 1323 1114.51 1323 791.194C1323 467.881 1087.29 191.784 770.866 139.173Z" fill="white"/>
<path d="M1294.9 791.193C1294.9 469.567 1053.68 203.251 742.765 163.455V112.417C742.765 65.8765 704.997 28.1042 658.461 28.1042C611.925 28.1042 574.157 65.8765 574.157 112.417V164.354C266.504 207.185 28.8799 471.928 28.8799 791.193C28.8799 1110.46 266.504 1375.2 574.157 1418.03V1468.96C574.157 1515.5 611.925 1553.27 658.461 1553.27C704.997 1553.27 742.765 1515.5 742.765 1468.96V1418.82C1053.79 1378.91 1294.9 1112.71 1294.9 791.081V791.193Z" fill="black"/>
<path d="M686.562 214.83V112.417C686.562 96.9037 673.972 84.313 658.461 84.313C642.949 84.313 630.359 96.9037 630.359 112.417V215.167C326.416 231.58 85.082 483.17 85.082 791.194C85.082 1099.22 326.416 1350.81 630.359 1367.22V1469.07C630.359 1484.58 642.949 1497.17 658.461 1497.17C673.972 1497.17 686.562 1484.58 686.562 1469.07V1367.56C993.765 1354.63 1238.7 1101.58 1238.7 791.194C1238.7 480.809 993.765 227.758 686.562 214.83ZM1079.53 480.584C1135.4 555.679 1171.59 646.175 1180.36 744.428H1010.18L1009.84 630.212C1009.61 571.305 984.548 518.019 944.644 480.584H1079.53ZM1031.08 424.376H686.562V271.038C820.998 277.334 942.171 334.779 1031.08 424.376ZM630.359 271.488V424.376H292.694C380.145 336.353 498.733 279.357 630.359 271.488ZM244.248 480.584H633.956L630.359 482.158L541.447 521.729L464.224 521.954C384.08 522.179 318.997 587.606 319.222 667.759L319.447 744.428H143.42C152.188 646.175 188.382 555.679 244.248 480.584ZM244.248 1101.8C181.301 1017.38 143.42 913.279 141.397 800.637H319.559V821.097C319.784 889.109 367.106 946.33 430.503 961.843L468.721 1101.8H244.248ZM630.359 1310.9C498.733 1303.03 380.145 1246.03 292.694 1158.01H496.035C525.26 1196.57 571.347 1220.63 621.929 1220.63C624.289 1220.63 626.537 1220.52 628.898 1220.4C629.347 1220.4 629.91 1220.4 630.359 1220.29V1310.9ZM657.561 1158.01C648.906 1161.27 639.801 1163.3 630.359 1163.97C629.01 1164.19 627.774 1164.19 626.425 1164.31C624.964 1164.31 623.39 1164.42 621.929 1164.42C609.564 1164.42 597.649 1162.17 586.634 1158.01C560.443 1148.34 538.974 1128.11 527.958 1101.8C526.047 1097.42 524.586 1092.92 523.349 1088.31L474.566 909.906H465.349C445.003 909.906 426.456 903.161 411.394 891.919C389.812 875.619 375.874 849.875 375.762 820.984L375.424 665.961C376.099 617.509 415.778 578.275 464.449 578.163L553.474 577.938L742.652 493.737C762.098 485.081 782.668 480.697 803.688 480.697C886.081 480.697 953.411 547.81 953.636 630.324L954.198 855.159C954.198 895.292 938.799 932.952 910.585 961.281C882.484 989.498 843.817 1005.57 804.25 1005.57C792.335 1005.57 780.532 1004.11 769.067 1001.3C760.524 999.278 752.206 996.468 744.113 992.87L703.423 974.996C703.423 974.996 721.632 1041.77 722.194 1044.69C725.679 1064.37 723.431 1084.04 715.899 1101.8C712.865 1109.22 708.818 1116.3 703.985 1122.94C698.926 1129.91 692.969 1135.98 686.562 1141.37C677.907 1148.46 668.015 1154.08 657.561 1158.01ZM686.562 1311.35V1206.91C710.504 1196.23 731.636 1179.6 747.823 1158.01H1031.08C942.171 1247.61 820.998 1305.05 686.562 1311.35ZM775.137 1101.8C778.622 1088.31 780.308 1074.37 779.97 1060.32C788.064 1061.33 796.157 1061.78 804.25 1061.78C858.542 1061.78 911.822 1039.64 950.377 1000.96C989.269 962.068 1010.51 910.131 1010.4 854.934V800.637H1182.38C1180.36 913.279 1142.48 1017.38 1079.53 1101.8H775.137Z" fill="#FFCB01"/>
<path d="M766.594 941.383C779.071 946.892 791.886 949.365 804.25 949.365C853.821 949.365 898.108 909.457 897.996 855.272L897.434 630.437C897.209 576.589 853.034 536.906 803.688 536.906C791.099 536.906 778.172 539.491 765.583 545.112L586.634 624.704V862.466L627.1 880.228L684.201 905.297L766.594 941.383Z" fill="#CC0518"/>
<path d="M604.506 931.715L554.374 909.682H532.792L577.754 1074.04C583.037 1094.27 601.247 1108.21 621.929 1108.21C622.604 1108.21 623.278 1108.21 623.953 1108.1C653.065 1106.86 673.523 1079.09 666.217 1050.88L637.104 945.992L604.506 931.715Z" fill="#CC0518"/>
<path d="M431.627 667.422L431.964 820.76C432.077 829.865 435.674 838.072 441.743 844.03C446.352 848.639 452.31 851.899 459.054 853.136C461.077 853.473 463.1 853.698 465.124 853.698H530.431V634.259H464.562C446.24 634.484 431.515 649.211 431.627 667.422Z" fill="#CC0518"/>
</svg>
