<svg width="1299" height="1693" viewBox="0 0 1299 1693" fill="none" xmlns="http://www.w3.org/2000/svg">
<path d="M1293.08 684.956C1289.37 672.094 1283.77 660.669 1276.36 651.06C1268.86 641.3 1259.71 633.28 1249.34 627.303C1246.39 625.563 1243.29 623.974 1239.96 622.536V601.2C1239.96 477.797 1189.25 359.01 1097.08 266.704C1009.53 178.938 891.699 122.192 763.732 105.698V74.8285C763.732 33.669 728.467 0.151367 685.181 0.151367C667.397 0.151367 649.992 5.97724 636.068 16.5697C633.797 18.0073 631.603 19.4448 629.635 20.9581C627.289 22.3956 625.17 23.8332 623.203 25.3464C620.933 26.7839 618.814 28.2215 616.77 29.7347C614.5 31.1722 612.306 32.6098 610.338 34.123C608.068 35.5606 605.949 36.9981 603.906 38.5113C601.635 39.9489 599.441 41.3864 597.473 42.8997C595.203 44.3372 593.084 45.7748 591.041 47.288C588.771 48.7255 586.576 50.1631 584.608 51.6763C562.133 65.5222 548.738 88.8257 548.738 114.248V121.435C540.111 119.393 531.333 118.333 522.403 118.333C498.793 118.333 476.09 125.597 456.717 139.367C454.976 140.426 453.312 141.561 451.647 142.696C449.906 143.755 448.241 144.89 446.577 146.025C444.836 147.084 443.171 148.219 441.506 149.354C439.766 150.413 438.101 151.548 436.436 152.759C434.695 153.818 433.031 154.953 431.366 156.088C429.625 157.147 427.96 158.282 426.296 159.493C424.555 160.552 422.89 161.687 421.225 162.822C419.485 163.881 417.82 165.016 416.155 166.227C382.782 187.26 362.88 223.199 362.88 262.467C362.88 277.523 366.966 294.774 375.215 314.9L374.836 315.127C373.171 316.262 371.507 317.321 370.22 318.305L368.404 319.515C366.739 320.65 365.074 321.785 363.712 322.693C334.123 342.819 307.334 366.349 284.253 392.528L283.647 393.209C239.226 443.523 209.259 502.538 196.015 565.11C194.048 563.597 192.08 562.235 190.113 561.024C180.805 555.198 170.134 552.247 158.329 552.247H106.794C93.3996 552.247 80.8375 556.56 71.3024 564.504C69.2592 565.791 67.3673 567.153 65.5511 568.59C63.5078 569.876 61.616 571.238 59.7997 572.676C57.7565 573.962 55.8646 575.324 54.0484 576.762C52.0052 578.048 50.1133 579.41 48.2971 580.847C46.2539 582.133 44.2863 583.495 42.5458 584.933C40.5025 586.219 38.535 587.581 36.7944 589.018C34.7512 590.305 32.8593 591.667 31.0431 593.104C28.9999 594.39 27.0323 595.752 25.2918 597.19C10.0054 606.572 0.924316 623.141 0.924316 641.905V840.742C0.924316 850.351 3.19458 859.279 7.50807 866.845C5.46484 872.216 4.40538 877.891 4.40538 883.717V900.816C4.40538 917.991 12.9567 933.048 27.1837 940.992C34.7512 945.305 43.3025 947.196 52.2322 947.423V1073.7C52.2322 1080.51 52.9133 1086.56 54.1998 1092.24C56.5457 1102.45 61.3133 1111.3 68.3511 1118.49C75.0105 1125.38 83.3348 1130.29 93.0969 1133.32C100.135 1135.44 107.929 1136.5 116.935 1136.5H184.891C187.086 1136.5 189.129 1136.5 191.172 1136.35C200.329 1210.34 232.113 1279.88 283.95 1338.59L284.404 1339.04C298.253 1354.7 313.464 1369.53 329.809 1383.15C325.193 1397.23 322.847 1409.94 322.847 1421.06C322.847 1483.86 373.928 1534.93 436.739 1534.93C460.349 1534.93 483.052 1527.66 502.501 1513.89C504.241 1512.84 505.906 1511.7 507.495 1510.57C509.236 1509.51 510.901 1508.37 512.565 1507.24C514.306 1506.18 515.971 1505.04 517.636 1503.91C519.376 1502.85 521.041 1501.71 522.706 1500.58C524.446 1499.52 526.111 1498.38 527.776 1497.25C529.517 1496.19 531.182 1495.06 532.846 1493.92C534.587 1492.86 536.252 1491.73 537.917 1490.59C539.657 1489.53 541.322 1488.4 542.987 1487.19C545.03 1485.9 546.998 1484.54 548.89 1483.18V1617.63C548.89 1658.78 584.154 1692.3 627.441 1692.3C645.224 1692.3 662.63 1686.48 676.554 1675.81C678.824 1674.37 680.943 1672.93 682.986 1671.42C685.257 1670.06 687.376 1668.55 689.419 1667.03C691.689 1665.67 693.808 1664.16 695.851 1662.64C698.121 1661.21 700.316 1659.77 702.284 1658.26C704.554 1656.82 706.673 1655.38 708.716 1653.87C710.986 1652.51 713.105 1650.99 715.148 1649.48C717.419 1648.12 719.538 1646.6 721.581 1645.09C723.927 1643.65 726.046 1642.22 728.013 1640.7C750.489 1626.86 763.883 1603.55 763.883 1578.13V1576.39C838.424 1559.37 906.985 1528.88 967.828 1485.98L969.947 1484.54C971.536 1483.48 973.05 1482.42 974.412 1481.51L976.38 1480.15C977.969 1479.09 979.482 1478.03 980.844 1477.12L982.963 1475.69C984.477 1474.63 985.99 1473.64 987.277 1472.74L989.396 1471.3C990.909 1470.31 992.347 1469.33 993.558 1468.42L995.677 1466.99C997.266 1465.93 998.78 1464.87 1000.14 1463.96L1002.11 1462.6C1003.7 1461.54 1005.21 1460.48 1006.57 1459.49L1008.84 1457.98C1010.28 1457 1011.64 1456.09 1012.86 1455.26L1014.97 1453.82C1016.56 1452.76 1018.08 1451.7 1019.44 1450.79C1157.62 1356.14 1240.11 1207.01 1240.11 1051.76V864.877C1241.62 863.894 1243.06 862.835 1244.5 861.7C1246.47 860.489 1248.36 859.127 1250.25 857.614C1251.31 857.009 1252.29 856.328 1253.35 855.571C1253.43 855.571 1253.58 855.571 1253.65 855.495C1264.25 852.469 1273.25 847.248 1280.59 839.985C1288.39 832.192 1293.61 822.734 1296.11 811.915C1297.55 805.938 1298.23 799.431 1298.23 792.621V724.678C1298.23 710.151 1296.56 696.986 1293.23 685.486L1293.08 684.956ZM635.916 935.998C635.916 935.998 636.295 935.847 636.446 935.771C636.446 935.771 636.446 935.771 636.37 935.771L635.916 935.923V935.998ZM1024.96 937.814V976.78H712.273C711.44 970.197 709.094 963.842 705.159 957.562L700.089 949.693C697.365 945.38 694.413 941.9 690.63 938.571C682.23 931.383 671.786 927.827 661.268 928.13C663.235 926.919 664.976 925.633 666.64 924.271C668.684 923.06 670.576 921.699 672.392 920.185C674.511 918.975 676.403 917.613 678.143 916.1C680.262 914.813 682.23 913.452 683.97 911.938C686.165 910.652 688.208 909.215 690.1 907.55C693.505 904.524 696.532 900.968 698.954 897.109L699.786 895.823C715.451 896.882 731.343 896.05 745.646 893.477C755.862 891.586 765.321 889.24 773.721 886.289C777.126 885.079 780.456 883.868 783.635 882.506C784.316 885.684 785.148 888.862 786.208 892.04C789.689 903.086 795.289 913.225 802.932 922.304C810.802 931.61 820.791 939.252 832.672 945.002C844.856 950.828 859.007 953.854 874.672 953.854C882.921 953.854 890.942 953.476 898.585 952.644C905.094 951.963 911.375 951.206 917.353 950.374C922.877 949.617 928.25 948.936 933.547 948.331C936.575 947.953 939.677 947.726 942.78 947.65C950.574 953.93 960.564 957.41 971.234 957.41H982.509C993.785 957.41 1003.93 953.779 1012.1 946.894C1014.14 945.683 1016.03 944.321 1017.85 942.808C1019.89 941.597 1021.78 940.235 1023.6 938.722C1024.06 938.42 1024.51 938.193 1024.89 937.89L1024.96 937.814Z" fill="white"/>
<path d="M1273.1 691.236C1270.15 681.097 1265.84 672.245 1260.16 664.906C1254.41 657.491 1247.52 651.438 1239.73 646.899C1234.51 643.872 1228.76 641.527 1222.78 639.56V601.2C1222.78 356.059 1015.28 149.43 746.554 122.495V74.7526C746.554 44.0344 719.84 18.9907 686.921 18.9907C672.316 18.9907 658.921 23.9843 648.554 32.1557C646.284 33.5176 644.165 34.9551 642.122 36.544C639.851 37.9059 637.732 39.3434 635.689 40.9323C633.419 42.2942 631.3 43.7318 629.257 45.3206C626.986 46.6825 624.868 48.1201 622.824 49.709C620.554 51.0709 618.435 52.5084 616.392 54.0973C614.122 55.4592 612.003 56.8967 609.96 58.4856C607.689 59.8475 605.57 61.285 603.527 62.8739C601.257 64.2358 599.138 65.6734 597.095 67.2622C580.522 77.1738 569.473 94.5001 569.473 114.248V148.673C556.003 141.334 540.565 137.173 524.219 137.173C503.636 137.173 484.641 143.831 469.052 154.953C467.311 156.012 465.647 157.147 463.982 158.282C462.241 159.341 460.576 160.476 458.911 161.611C457.171 162.67 455.506 163.805 453.841 164.94C452.101 165.999 450.436 167.134 448.771 168.269C447.03 169.329 445.366 170.463 443.701 171.598C441.96 172.658 440.295 173.792 438.631 174.927C436.89 175.987 435.225 177.122 433.56 178.256C431.82 179.316 430.155 180.451 428.49 181.586C401.625 198.382 383.615 228.117 383.615 262.089C383.615 280.171 391.409 301.735 400.717 321.18C398.977 322.39 397.236 323.525 395.571 324.736C393.377 326.249 391.182 327.686 388.987 329.2C386.869 330.637 384.674 332.075 382.631 333.588C380.512 335.025 378.317 336.463 376.198 337.976C348.198 357.043 322.62 379.363 300.069 404.86L299.539 405.39C251.334 460.017 221.594 523.799 212.134 592.045C210.923 592.877 209.788 593.709 208.804 594.617C207.215 595.449 205.929 596.357 204.718 597.341L193.594 586.294C189.734 582.511 185.799 579.258 181.788 576.761C175.507 572.827 168.242 570.86 160.07 570.86H108.535C98.6211 570.86 90.2212 574.113 84.0158 579.636C81.8969 580.771 80.005 582.133 78.2645 583.722C76.1455 584.857 74.2537 586.219 72.5131 587.808C70.3942 589.018 68.5023 590.305 66.7618 591.893C64.6429 593.028 62.751 594.39 61.0105 595.979C58.8916 597.114 56.9997 598.476 55.2592 600.065C53.1402 601.2 51.2484 602.562 49.5078 604.15C47.3889 605.285 45.497 606.647 43.7565 608.236C41.6376 609.371 39.7457 610.733 38.0052 612.322C27.8647 617.996 21.5836 628.438 21.5836 641.603V840.439C21.5836 853.679 27.6376 861.094 31.9511 864.65C27.562 870.022 24.989 876.529 24.989 883.414V900.513C24.989 910.728 29.9836 919.656 38.2322 924.271C42.8484 926.919 48.07 928.205 53.8213 928.205C55.2592 928.205 57.4537 928.054 60.2537 927.751C62.2213 927.524 64.4915 927.222 67.0645 926.768L72.8915 925.784V1073.47C72.8915 1078.85 73.3456 1083.54 74.405 1087.85C75.9185 1094.58 79.0969 1100.41 83.6374 1105.18C88.0266 1109.72 93.6266 1113.04 100.286 1115.01C105.508 1116.6 111.486 1117.36 118.599 1117.36H186.556C193.367 1117.36 199.118 1116.6 204.188 1115.16C206.08 1114.63 207.896 1113.88 209.637 1113.12C214.631 1191.13 245.356 1264.21 299.615 1325.65L300.22 1326.26C316.566 1344.72 334.501 1361.51 353.798 1376.72C347.744 1391.78 343.355 1407.29 343.355 1420.76C343.355 1473.11 385.96 1515.71 438.328 1515.71C458.912 1515.71 477.906 1509.05 493.495 1497.93C495.236 1496.87 496.901 1495.74 498.565 1494.6C500.306 1493.54 501.971 1492.41 503.636 1491.27C505.376 1490.21 507.041 1489.08 508.706 1487.94C510.446 1486.88 512.111 1485.75 513.776 1484.61C515.517 1483.55 517.182 1482.42 518.846 1481.28C520.587 1480.23 522.252 1479.09 523.917 1477.96C525.657 1476.9 527.322 1475.76 528.987 1474.63C530.727 1473.57 532.392 1472.43 534.057 1471.3C538.522 1468.5 542.76 1465.32 546.695 1461.84C554.187 1463.2 561.754 1464.34 569.398 1465.32V1617.4C569.398 1648.12 596.111 1673.16 629.03 1673.16C643.635 1673.16 657.03 1668.17 667.397 1660C669.667 1658.63 671.786 1657.2 673.83 1655.61C676.1 1654.25 678.219 1652.81 680.262 1651.22C682.532 1649.86 684.651 1648.42 686.694 1646.83C688.965 1645.47 691.083 1644.03 693.127 1642.44C695.397 1641.08 697.516 1639.64 699.559 1638.05C701.829 1636.69 703.948 1635.25 705.992 1633.67C708.262 1632.3 710.381 1630.87 712.424 1629.28C714.694 1627.92 716.813 1626.48 718.856 1624.89C735.429 1614.98 746.554 1597.65 746.554 1577.9V1560.88C825.332 1544.92 897.375 1513.44 958.747 1470.09C960.942 1468.57 963.136 1467.14 965.255 1465.62C967.374 1464.19 969.569 1462.75 971.688 1461.23C973.807 1459.8 975.926 1458.36 978.044 1456.92C980.239 1455.41 982.434 1453.97 984.553 1452.46C986.671 1451.02 988.866 1449.58 990.985 1448.07C993.104 1446.63 995.298 1445.19 997.417 1443.68C999.536 1442.24 1001.66 1440.81 1003.77 1439.37C1005.97 1437.86 1008.16 1436.42 1010.28 1434.9C1139.54 1346.38 1222.78 1206.71 1222.78 1051.53V854.814C1222.78 854.814 1223.38 854.285 1223.69 854.058C1225.81 852.847 1227.7 851.485 1229.44 849.972C1231.56 848.837 1233.45 847.4 1235.19 845.886C1237.31 844.676 1239.2 843.314 1240.94 841.801C1243.06 840.666 1244.88 839.228 1246.69 837.715C1248.81 836.58 1250.7 835.143 1252.44 833.629C1254.56 832.494 1256.45 831.057 1258.19 829.544C1261.15 827.879 1263.79 825.912 1266.06 823.642C1270.83 818.875 1274.01 813.05 1275.6 806.391C1276.58 802.079 1277.11 797.388 1277.11 792.243V724.3C1277.11 711.891 1275.75 700.845 1273.03 691.387L1273.1 691.236ZM473.744 833.251L480.479 847.627C477.982 844.978 475.333 842.406 472.457 840.136C471.171 839.077 469.657 838.169 468.295 837.11C470.036 836.05 471.625 834.916 473.138 833.629C473.29 833.554 473.517 833.402 473.668 833.327L473.744 833.251ZM1045.7 995.695H691.689C694.186 991.76 695.548 987.22 695.548 982.378C695.548 977.536 694.11 972.618 691.159 967.927L685.938 959.907C684.197 957.183 682.457 955.065 680.186 953.098C671.635 945.834 659.83 945.153 649.538 951.357C648.63 951.887 647.495 952.492 646.208 953.173C645.754 953.4 645.149 953.627 644.695 953.778C644.695 953.778 643.938 953.779 642.197 953.098C642.197 953.098 641.365 952.719 640.003 951.055C639.17 950.071 637.581 947.65 635.916 942.429C635.008 939.554 633.949 934.258 633.797 925.708C633.949 925.557 634.1 925.406 634.176 925.33C635.916 924.422 637.581 923.363 639.17 922.001C639.473 921.774 639.7 921.471 639.927 921.244C641.667 920.336 643.332 919.277 644.922 917.915C645.224 917.688 645.451 917.386 645.678 917.159C647.419 916.251 649.084 915.192 650.673 913.83C650.976 913.603 651.203 913.3 651.43 913.073C653.17 912.165 654.835 911.106 656.424 909.744C656.727 909.517 656.954 909.214 657.181 908.987C658.921 908.079 660.586 907.02 662.176 905.734C662.478 905.507 662.705 905.204 662.932 904.977C664.673 904.069 666.338 903.01 667.927 901.648C668.23 901.421 668.457 901.119 668.684 900.892C670.424 899.984 672.165 898.924 673.678 897.563C673.981 897.336 674.208 897.033 674.511 896.73C676.251 895.822 677.916 894.763 679.505 893.477C681.548 891.661 683.365 889.543 684.954 887.046L689.646 879.782C690.478 878.572 691.235 877.361 691.916 876.075C710.229 878.42 728.694 877.891 744.208 875.016C753.44 873.351 761.991 871.157 769.408 868.585C777.051 865.936 783.937 862.91 789.916 859.657C794.759 857.008 798.997 854.436 803.007 851.712C802.478 855.42 802.251 859.354 802.251 863.364C802.251 870.854 803.537 878.723 806.034 886.667C808.759 895.293 813.148 903.237 819.126 910.425C825.256 917.688 833.126 923.666 842.586 928.205C852.196 932.82 863.623 935.166 876.412 935.166C883.98 935.166 891.32 934.788 898.283 934.031C904.639 933.35 910.769 932.594 916.596 931.837C922.196 931.08 927.72 930.399 933.093 929.718C937.634 929.189 942.326 928.886 947.018 928.886C949.439 928.886 951.255 928.962 952.542 929.113C957.309 935.166 964.65 938.646 973.05 938.646H984.326C993.331 938.646 999.309 934.939 1002.87 931.534C1005.21 930.324 1007.18 928.886 1008.62 927.449C1010.96 926.238 1012.86 924.8 1014.37 923.363C1016.71 922.152 1018.68 920.715 1020.12 919.277C1022.47 918.067 1024.43 916.629 1025.87 915.192C1028.22 913.981 1030.18 912.543 1031.62 911.106C1033.97 909.895 1035.86 908.458 1037.37 907.02C1039.72 905.81 1041.69 904.372 1043.13 902.935C1044.03 902.481 1044.87 901.951 1045.62 901.497V995.846L1045.7 995.695Z" fill="#1D161E"/>
<path d="M326.631 616.256H1047.51C1055.84 616.256 1062.65 609.447 1062.65 601.124C1062.65 524.177 1034.65 451.694 981.753 391.695C913.191 313.765 811.937 267.763 702.208 263.904V190.438C949.439 197.55 1148.09 379.06 1148.09 601.124C1148.09 609.447 1154.9 616.256 1163.22 616.256C1171.55 616.256 1178.36 609.447 1178.36 601.124C1178.36 362.415 966.088 167.513 702.208 160.249V74.6771C702.208 66.3544 695.397 59.5449 687.073 59.5449C678.749 59.5449 671.938 66.3544 671.938 74.6771V263.829C562.209 267.763 461.031 313.765 392.469 391.62C339.496 451.694 311.572 524.102 311.572 601.048C311.572 609.371 318.383 616.181 326.707 616.181L326.631 616.256ZM756.392 386.55H702.208V309.225C717.494 323.601 738.154 348.039 756.392 386.55ZM671.938 309.603V386.55H618.133C636.295 348.493 656.803 324.055 671.938 309.603ZM671.938 416.815V585.992H576.663C578.1 514.568 589.906 459.185 605.495 416.815H671.938ZM702.208 416.815H769.029C784.467 459.109 796.121 514.493 797.559 585.992H702.208V416.815ZM801.191 416.815H871.04C904.413 459.109 929.612 514.417 932.715 585.992H827.753C826.391 516.308 815.872 460.774 801.191 416.815ZM789.764 386.55C778.413 359.994 765.775 338.657 753.44 321.861C781.516 336.463 814.207 357.497 843.948 386.55H789.764ZM584.457 386.55H528.836C559.257 356.513 592.857 335.252 621.614 320.65C608.976 337.674 596.035 359.388 584.457 386.55ZM573.03 416.815C558.349 460.774 547.83 516.308 546.468 585.992H441.506C444.609 514.266 469.279 458.958 502.047 416.815H573.03ZM963.061 585.992C960.261 516.535 938.693 460.849 908.65 416.815H963.515C1005.29 466.221 1028.75 524.253 1032.08 585.992H963.137H963.061ZM885.267 386.55C855.299 351.973 820.716 326.098 789.083 307.334C843.872 322.314 893.742 349.325 934.38 386.55H885.267ZM585.138 307.334C553.506 326.098 518.922 351.973 488.879 386.55H439.766C480.403 349.325 530.274 322.314 585.063 307.334H585.138ZM410.782 416.815H465.571C435.528 460.925 413.961 516.535 411.161 585.992H342.22C345.55 524.253 369.009 466.221 410.782 416.815Z" fill="#FFCB01"/>
<path d="M1163.22 849.518C1154.9 849.518 1148.09 856.328 1148.09 864.65V1051.38C1148.09 1273.44 949.439 1454.95 702.208 1462.07V1388.6C811.937 1384.67 913.115 1338.66 981.677 1260.81C1034.65 1200.73 1062.65 1128.33 1062.65 1051.38C1062.65 1043.06 1055.84 1036.25 1047.51 1036.25H326.631C318.307 1036.25 311.496 1043.06 311.496 1051.38C311.496 1128.4 339.496 1200.81 392.469 1260.81C461.031 1338.66 562.209 1384.74 671.938 1388.6V1577.75C671.938 1586.07 678.749 1592.88 687.073 1592.88C695.397 1592.88 702.208 1586.07 702.208 1577.75V1492.18C966.164 1484.99 1178.36 1290.01 1178.36 1051.31V864.575C1178.36 856.252 1171.55 849.442 1163.22 849.442V849.518ZM702.208 1342.9V1265.95H756.013C737.851 1304.09 717.343 1328.45 702.208 1342.9ZM671.938 1342.9C656.803 1328.45 636.295 1304.01 618.133 1265.95H671.938V1342.9ZM789.764 1265.95H845.386C814.964 1295.99 781.364 1317.25 752.608 1331.85C765.246 1314.83 778.186 1293.12 789.764 1265.95ZM801.191 1235.69C815.872 1191.73 826.391 1136.2 827.753 1066.51H932.715C929.612 1138.24 904.942 1193.55 872.175 1235.69H801.191ZM768.651 1235.69H702.132V1066.51H797.483C796.045 1137.94 784.24 1193.32 768.651 1235.69ZM671.862 1235.69H605.419C589.83 1193.32 578.1 1137.94 576.587 1066.51H671.862V1235.69ZM572.879 1235.69H503.03C469.658 1193.4 444.458 1138.09 441.355 1066.51H546.317C547.679 1136.2 558.198 1191.73 572.879 1235.69ZM584.306 1265.95C595.657 1292.51 608.295 1313.85 620.63 1330.72C592.554 1316.12 559.863 1295.08 530.122 1265.95H584.306ZM788.932 1345.17C820.564 1326.41 855.148 1300.53 885.191 1265.95H934.304C893.667 1303.18 843.797 1330.19 789.008 1345.17H788.932ZM963.364 1235.69H908.499C938.542 1191.58 960.11 1135.97 962.91 1066.51H1031.85C1028.52 1128.25 1005.06 1186.28 963.288 1235.69H963.364ZM411.085 1066.51C413.885 1135.97 435.452 1191.66 465.495 1235.69H410.706C368.934 1186.28 345.474 1128.25 342.145 1066.51H411.085ZM488.879 1265.95C518.922 1300.53 553.43 1326.41 585.138 1345.25C530.349 1330.27 480.479 1303.26 439.842 1265.95H488.955H488.879Z" fill="#FFCB01"/>
<path d="M1130.83 741.323V780.894C1129.55 780.667 1128.34 780.364 1127.28 779.986C1123.87 778.851 1121.3 777.489 1119.48 775.749C1117.82 774.16 1116.61 772.42 1115.93 770.377C1115.02 767.729 1114.56 765.005 1114.56 761.979C1114.56 758.952 1115.02 756.001 1116 753.126C1116.76 750.781 1117.97 748.814 1119.78 746.998C1121.6 745.182 1124.33 743.593 1127.73 742.307C1128.71 741.929 1129.77 741.626 1130.91 741.399L1130.83 741.323Z" fill="#1D161E" stroke="#1D161E" stroke-width="4" stroke-miterlimit="10"/>
<path d="M271.161 593.861C273.053 593.861 274.793 594.466 276.383 595.676C277.896 596.887 278.653 599.233 278.653 602.713V801.398C278.653 808.888 275.096 812.671 267.983 812.671H215.086C211.756 812.671 208.956 811.99 206.761 810.704C204.567 809.418 202.599 807.829 200.859 806.165L122.837 724.678C123.745 737.919 124.654 750.024 125.562 761.071C125.864 765.837 126.243 770.528 126.621 775.219C126.999 779.91 127.378 784.299 127.681 788.309C127.983 792.394 128.286 795.95 128.513 798.977C128.74 802.003 128.967 804.197 129.043 805.559C129.27 807.299 129.043 808.888 128.21 810.402C127.454 811.915 125.713 812.671 122.913 812.671H103.691C101.875 812.671 100.135 812.066 98.6212 810.931C97.1077 809.796 96.2753 807.451 96.2753 803.97V605.134C96.2753 597.644 100.437 593.861 108.762 593.861H160.297C164.156 593.861 167.41 594.693 169.983 596.282C172.556 597.871 175.205 600.065 177.853 602.713L252.091 676.331C251.107 664.225 250.199 653.103 249.367 642.813C248.988 638.425 248.61 634.112 248.231 629.724C247.853 625.335 247.55 621.25 247.248 617.467C246.945 613.684 246.642 610.355 246.415 607.48C246.188 604.604 245.961 602.486 245.885 601.048C245.658 599.46 246.037 597.795 246.869 596.282C247.702 594.769 249.745 593.936 252.923 593.936H271.237L271.161 593.861Z" fill="white"/>
<path d="M370.371 812.671C364.847 812.671 359.399 812.293 353.799 811.612C348.199 810.931 342.977 809.721 337.982 808.207C332.988 806.618 328.22 804.576 323.907 802.003C319.518 799.506 315.734 796.329 312.555 792.546C309.377 788.763 306.88 784.374 304.988 779.305C303.172 774.236 302.264 768.41 302.264 761.752C302.264 752.899 303.929 745.333 307.334 739.053C310.664 732.774 315.204 727.553 320.804 723.392C326.404 719.23 332.912 716.053 340.253 713.783C347.593 711.589 355.161 710.151 362.955 709.546V699.029C362.955 695.095 362.426 691.917 361.442 689.571C360.458 687.226 359.096 685.486 357.582 684.351C356.069 683.216 354.253 682.459 352.436 682.081C350.545 681.703 348.728 681.551 347.063 681.551C345.02 681.551 342.901 681.854 340.555 682.459C338.285 683.065 336.091 683.821 333.896 684.653C331.777 685.486 329.734 686.469 327.766 687.453C325.874 688.437 324.21 689.344 322.923 690.177C322.318 690.555 321.788 690.933 321.258 691.236C320.728 691.539 320.274 691.69 319.745 691.69C318.837 691.69 318.004 691.009 317.172 689.723L312.026 681.476C311.496 680.795 311.269 680.038 311.269 679.206C311.269 678.374 311.572 677.693 312.253 677.087C312.934 676.482 313.539 675.952 314.145 675.574C317.474 673.229 321.788 670.883 326.934 668.386C332.08 665.965 337.907 663.771 344.415 661.804C350.923 659.837 357.885 658.324 365.377 657.113C372.869 655.902 380.663 655.297 388.685 655.297C396.707 655.297 403.744 655.524 411.009 656.054C418.274 656.583 425.16 657.643 431.593 659.307C438.025 660.972 443.928 663.393 449.301 666.495C454.674 669.597 459.29 673.683 463.149 678.752C467.085 683.821 470.112 690.101 472.231 697.516C474.349 704.931 475.409 713.783 475.409 724.148V792.092C475.409 795.421 475.106 798.447 474.501 801.02C473.895 803.592 472.685 805.786 471.02 807.526C469.279 809.267 466.933 810.553 463.831 811.385C460.804 812.217 456.793 812.671 451.95 812.671H370.599H370.371ZM362.88 728.839C355.539 728.839 349.409 729.747 344.415 731.563C339.42 733.379 335.409 735.8 332.382 738.902C329.355 742.004 327.161 745.485 325.799 749.495C324.512 753.505 323.831 757.666 323.831 761.903C323.831 766.14 324.512 770.226 325.799 774.009C327.085 777.792 329.28 781.121 332.382 783.996C335.409 786.871 339.42 789.065 344.415 790.73C349.409 792.319 355.539 793.151 362.88 793.151V728.839Z" fill="white"/>
<path d="M611.624 722.787L632.813 665.663C633.722 663.015 634.705 660.896 635.765 659.156C636.824 657.491 639.019 656.659 642.273 656.659H658.392C661.343 656.659 662.781 657.491 662.781 659.232C662.781 660.367 662.251 662.182 661.116 664.755L602.77 802.382C601.333 805.862 599.743 808.435 598.003 810.175C596.187 811.915 593.689 812.747 590.435 812.747H566.371C564.252 812.747 562.435 812.445 561.073 811.764C559.635 811.083 558.425 810.25 557.517 809.267C556.533 808.283 555.776 807.148 555.171 806.013C554.565 804.878 554.035 803.744 553.657 802.76L490.847 669.597C489.938 667.706 489.484 665.89 489.484 664.225C489.484 661.577 490.468 659.686 492.36 658.551C494.252 657.416 496.295 656.81 498.338 656.81H572.727C575.225 656.81 577.419 656.886 579.16 657.113C580.9 657.34 582.338 657.718 583.397 658.248C584.533 658.778 585.441 659.459 586.122 660.291C586.803 661.123 587.408 662.107 587.938 663.317L611.7 722.938L611.624 722.787Z" fill="white"/>
<path d="M815.116 787.401C817.84 787.401 820.337 787.022 822.608 786.266C824.802 785.509 826.845 784.677 828.586 783.769C830.402 782.861 831.84 782.029 832.975 781.272C834.11 780.516 835.018 780.137 835.624 780.137C836.532 780.137 837.213 780.289 837.516 780.591C837.894 780.894 838.272 781.424 838.802 782.256L844.175 790.503C844.705 791.335 844.932 792.016 844.932 792.621C844.932 793.302 844.705 793.908 844.326 794.286C843.948 794.664 843.494 795.042 843.116 795.345C839.786 797.691 835.624 800.187 830.78 802.911C825.937 805.635 820.262 808.056 813.754 810.326C807.321 812.596 799.981 814.412 791.883 815.925C783.786 817.362 774.856 818.119 765.094 818.119C757.451 818.119 749.883 817.514 742.24 816.303C734.597 815.093 727.332 813.125 720.37 810.553C713.408 807.905 706.9 804.424 700.922 800.187C694.943 795.95 689.722 790.73 685.332 784.526C680.943 778.321 677.462 771.134 674.889 762.962C672.316 754.791 671.105 745.409 671.105 734.817C671.105 724.224 672.392 715.22 674.889 706.973C677.387 698.802 680.868 691.614 685.332 685.41C689.797 679.206 694.943 673.985 700.922 669.673C706.9 665.36 713.408 661.88 720.37 659.156C727.332 656.432 734.597 654.541 742.24 653.254C749.883 651.968 757.451 651.438 765.094 651.438C777.808 651.438 789.613 652.876 800.51 655.676C811.408 658.551 820.943 663.166 828.964 669.673C836.986 676.18 843.267 684.729 847.883 695.246C852.424 705.839 854.77 718.776 854.77 734.136V742.685C854.77 744.501 854.315 745.939 853.407 746.922C852.499 747.906 850.986 748.435 848.867 748.435H785.754C786.586 755.926 788.024 762.206 790.067 767.275C792.11 772.344 794.532 776.354 797.256 779.305C799.981 782.331 802.856 784.374 806.035 785.661C809.213 786.871 812.24 787.476 815.191 787.476L815.116 787.401ZM833.126 729.672C833.126 721.576 832.521 714.842 831.235 709.47C829.948 704.098 828.283 699.861 826.164 696.684C824.045 693.506 821.548 691.236 818.597 689.874C815.721 688.588 812.694 687.907 809.516 687.907C807.17 687.907 804.672 688.361 801.872 689.269C799.073 690.177 796.575 692.144 794.154 695.095C791.732 698.045 789.764 702.282 788.024 707.73C786.359 713.178 785.375 720.517 785.073 729.672H833.051H833.126Z" fill="white"/>
<path d="M964.953 797.464C957.234 797.464 949.591 796.934 941.947 795.875C934.304 794.815 927.039 793.075 920.001 790.805C919.926 791.335 919.85 791.789 919.85 792.243V793.681C919.85 796.707 920.38 799.582 921.364 802.154C922.347 804.727 924.012 806.997 926.131 808.964C928.326 810.931 931.201 812.444 934.758 813.504C938.315 814.563 942.628 815.168 947.699 815.168C953.299 815.168 958.445 814.866 963.212 814.185C967.98 813.504 972.672 812.823 977.212 812.066C981.753 811.309 986.369 810.629 990.985 809.948C995.601 809.267 1000.52 808.964 1005.67 808.964C1010.81 808.964 1015.5 809.872 1020.27 811.612C1025.04 813.428 1029.28 816 1032.98 819.405C1036.69 822.81 1039.64 826.971 1041.91 831.965C1044.11 836.958 1045.24 842.633 1045.24 848.988C1045.24 854.663 1044.71 859.657 1043.65 863.894C1042.6 868.131 1041.46 872.216 1040.4 876.075C1040.17 876.605 1039.8 877.21 1039.27 877.891C1038.74 878.572 1037.68 878.95 1036.16 878.95H1024.89C1023.45 878.95 1022.54 878.647 1022.16 877.967C1021.78 877.286 1021.48 876.756 1021.26 876.378C1019.36 871.611 1011.87 869.19 998.855 869.19C993.255 869.19 987.731 869.493 982.207 870.173C976.682 870.854 971.158 871.535 965.407 872.292C959.655 873.049 953.828 873.73 947.623 874.41C941.493 875.091 934.985 875.394 928.174 875.394C918.715 875.394 910.693 873.805 904.185 870.703C897.677 867.601 892.304 863.591 888.293 858.749C884.207 853.906 881.256 848.61 879.439 842.784C877.623 837.034 876.715 831.511 876.715 826.366C876.715 820.767 877.321 815.698 878.607 811.082C879.894 806.467 881.558 802.306 883.526 798.523C885.569 794.74 887.915 791.411 890.564 788.384C893.212 785.358 895.861 782.634 898.51 780.213C890.185 774.538 883.45 767.124 878.38 757.969C873.31 748.814 870.737 737.616 870.737 724.3C870.737 715.296 872.023 707.125 874.521 700.013C877.018 692.825 880.499 686.545 884.964 681.097C889.353 675.65 894.575 671.035 900.553 667.327C906.531 663.544 913.039 660.518 920.001 658.097C926.964 655.675 934.228 654.011 941.872 652.876C949.515 651.817 957.082 651.287 964.726 651.287C971.536 651.287 978.499 651.665 985.612 652.346C992.725 653.027 999.688 654.389 1006.42 656.205C1013.16 658.097 1019.59 660.593 1025.64 663.771C1031.7 666.949 1037.07 670.959 1041.69 675.801L1058.34 658.853C1059.47 657.718 1060.53 656.962 1061.59 656.432C1062.65 655.902 1063.63 655.675 1064.54 655.675C1066.13 655.675 1067.64 656.356 1068.93 657.643L1076.42 665.587C1077.63 667.025 1078.24 668.462 1078.24 669.975C1078.24 672.169 1076.95 674.212 1074.45 676.028L1052.36 691.539C1054.4 695.927 1055.91 700.694 1056.97 705.838C1058.03 710.983 1058.56 716.734 1058.56 722.862C1058.56 733.228 1057.28 742.307 1054.63 749.949C1051.98 757.666 1048.35 764.248 1043.73 769.772C1039.11 775.295 1033.74 779.759 1027.69 783.315C1021.63 786.871 1015.05 789.67 1008.09 791.713C1001.13 793.756 993.936 795.194 986.52 795.95C979.104 796.783 971.839 797.161 964.726 797.161L964.953 797.464ZM1015.88 707.579C1015.35 707.049 1015.13 706.292 1015.13 705.309C1015.13 704.098 1015.58 703.039 1016.49 702.131L1026.25 692.068C1024.21 690.555 1022.01 689.496 1019.59 688.89C1017.17 688.285 1014.82 687.983 1012.33 687.983C1009.83 687.983 1007.18 688.361 1004.15 689.117C1001.13 689.874 998.325 691.539 995.601 694.035C992.877 696.608 990.682 700.24 988.79 705.082C986.974 709.924 986.066 716.355 986.066 724.375C986.066 732.395 986.823 738.827 988.261 743.669C989.699 748.511 991.666 752.143 994.163 754.715C996.585 757.212 999.385 758.952 1002.56 759.709C1005.74 760.541 1009 760.919 1012.33 760.919C1015.5 760.919 1018.61 760.39 1021.63 759.331C1024.66 758.271 1027.31 756.304 1029.66 753.505C1031.93 750.705 1033.82 746.922 1035.26 742.08C1036.69 737.238 1037.37 731.033 1037.37 723.392C1037.37 715.75 1036.54 709.47 1034.8 704.477L1024.58 711.664C1023.75 712.194 1023 712.421 1022.16 712.421C1020.88 712.421 1019.74 711.891 1018.98 710.908L1015.96 707.579H1015.88Z" fill="white"/>
<path d="M1149.6 812.671C1144.08 812.671 1138.63 812.293 1133.03 811.612C1127.43 810.931 1122.21 809.721 1117.21 808.207C1112.22 806.618 1107.45 804.576 1103.14 802.003C1098.75 799.506 1094.96 796.329 1091.78 792.546C1088.61 788.763 1086.11 784.374 1084.22 779.305C1082.4 774.236 1081.49 768.41 1081.49 761.752C1081.49 752.899 1083.16 745.333 1086.56 739.053C1089.89 732.774 1094.43 727.553 1100.03 723.392C1105.63 719.23 1112.14 716.053 1119.48 713.783C1126.82 711.589 1134.39 710.151 1142.18 709.546V699.029C1142.18 695.095 1141.65 691.917 1140.67 689.571C1139.69 687.226 1138.32 685.486 1136.81 684.351C1135.3 683.216 1133.48 682.459 1131.67 682.081C1129.77 681.703 1127.96 681.551 1126.29 681.551C1124.25 681.551 1122.13 681.854 1119.78 682.459C1117.51 683.065 1115.32 683.821 1113.13 684.653C1111.01 685.486 1108.96 686.469 1107 687.453C1105.1 688.437 1103.44 689.344 1102.15 690.177C1101.55 690.555 1101.02 690.933 1100.49 691.236C1099.96 691.539 1099.5 691.69 1098.97 691.69C1098.07 691.69 1097.23 691.009 1096.4 689.723L1091.25 681.476C1090.73 680.795 1090.5 680.038 1090.5 679.206C1090.5 678.374 1090.8 677.693 1091.48 677.087C1092.16 676.482 1092.77 675.952 1093.37 675.574C1096.7 673.229 1101.02 670.883 1106.16 668.386C1111.31 665.965 1117.14 663.771 1123.64 661.804C1130.15 659.837 1137.11 658.324 1144.61 657.113C1152.1 655.902 1159.89 655.297 1167.91 655.297C1175.94 655.297 1182.97 655.524 1190.24 656.054C1197.5 656.583 1204.39 657.643 1210.82 659.307C1217.25 660.972 1223.16 663.393 1228.53 666.495C1233.9 669.597 1238.52 673.683 1242.38 678.752C1246.31 683.821 1249.34 690.101 1251.46 697.516C1253.58 704.931 1254.64 713.783 1254.64 724.148V792.092C1254.64 795.421 1254.34 798.447 1253.73 801.02C1253.12 803.592 1251.91 805.786 1250.25 807.526C1248.51 809.267 1246.16 810.553 1243.06 811.385C1240.03 812.217 1236.02 812.671 1231.18 812.671H1149.83H1149.6ZM1142.11 728.839C1134.77 728.839 1128.64 729.747 1123.64 731.563C1118.65 733.379 1114.64 735.8 1111.61 738.902C1108.58 742.004 1106.39 745.485 1105.03 749.495C1103.74 753.505 1103.06 757.666 1103.06 761.903C1103.06 766.14 1103.74 770.226 1105.03 774.009C1106.31 777.792 1108.51 781.121 1111.61 783.996C1114.64 786.871 1118.65 789.065 1123.64 790.73C1128.64 792.319 1134.77 793.151 1142.11 793.151V728.839Z" fill="white"/>
<path d="M147.659 861.624C141.075 863.061 134.945 864.348 129.345 865.407C126.924 865.937 124.502 866.39 122.081 866.769C119.659 867.147 117.464 867.525 115.27 867.904C113.075 868.282 111.259 868.509 109.594 868.736C107.929 868.963 106.643 869.039 105.886 869.039C104.146 869.039 102.708 868.736 101.573 868.055C100.362 867.374 99.832 866.088 99.832 864.045V846.946C99.832 845.054 100.664 843.238 102.254 841.725C103.843 840.212 106.416 839.38 109.897 839.38H299.01C302.491 839.38 304.988 840.136 306.653 841.725C308.318 843.314 309.074 845.054 309.074 846.946V864.045C309.074 866.088 308.469 867.45 307.334 868.055C306.199 868.736 304.685 869.039 303.02 869.039C302.112 869.039 300.826 868.963 299.237 868.736C297.647 868.509 295.756 868.282 293.561 867.904C291.442 867.525 289.172 867.147 286.75 866.769C284.329 866.39 281.983 865.937 279.485 865.407C273.885 864.272 267.831 863.061 261.172 861.624V1037.31C261.172 1040.79 260.869 1043.81 260.264 1046.39C259.658 1048.96 258.523 1051.15 256.858 1052.97C255.194 1054.79 252.848 1056.07 249.896 1056.9C246.945 1057.74 243.161 1058.19 238.621 1058.19H170.664C165.897 1058.19 162.037 1057.74 159.01 1056.83C155.983 1055.92 153.637 1054.63 151.972 1052.89C150.307 1051.15 149.172 1048.96 148.567 1046.31C147.962 1043.66 147.659 1040.56 147.659 1037.01V861.624Z" fill="#004BB2" stroke="#004BB2" stroke-miterlimit="10"/>
<path d="M444.382 975.418C447.106 975.418 449.603 975.039 451.874 974.283C454.068 973.526 456.111 972.694 457.852 971.786C459.668 970.878 461.106 970.046 462.241 969.289C463.376 968.532 464.284 968.154 464.89 968.154C465.798 968.154 466.479 968.306 466.782 968.608C467.16 968.911 467.538 969.44 468.068 970.273L473.441 978.52C473.971 979.352 474.198 980.033 474.198 980.638C474.198 981.319 473.971 981.924 473.592 982.303C473.214 982.681 472.76 983.059 472.382 983.362C469.052 985.707 464.89 988.204 460.047 990.928C455.203 993.652 449.528 996.073 443.02 998.343C436.587 1000.61 429.247 1002.43 421.149 1003.94C413.052 1005.38 404.122 1006.14 394.36 1006.14C386.717 1006.14 379.15 1005.53 371.506 1004.32C363.863 1003.11 356.598 1001.14 349.636 998.57C342.674 995.922 336.166 992.441 330.188 988.204C324.209 983.967 318.988 978.747 314.599 972.542C310.209 966.338 306.728 959.151 304.155 950.979C301.582 942.808 300.372 933.426 300.372 922.833C300.372 912.241 301.658 903.237 304.155 894.99C306.653 886.819 310.134 879.631 314.599 873.427C319.063 867.223 324.209 862.002 330.188 857.69C336.166 853.377 342.674 849.897 349.636 847.173C356.598 844.449 363.863 842.557 371.506 841.271C379.15 839.985 386.717 839.455 394.36 839.455C407.074 839.455 418.879 840.893 429.776 843.692C440.674 846.567 450.209 851.183 458.23 857.69C466.252 864.196 472.533 872.746 477.149 883.263C481.69 893.855 484.036 906.793 484.036 922.152V930.702C484.036 932.518 483.582 933.956 482.674 934.939C481.765 935.923 480.252 936.452 478.133 936.452H415.02C415.852 943.943 417.29 950.223 419.333 955.292C421.376 960.361 423.798 964.371 426.522 967.322C429.247 970.348 432.122 972.391 435.301 973.677C438.479 974.888 441.506 975.493 444.457 975.493L444.382 975.418ZM462.393 917.688C462.393 909.593 461.787 902.859 460.501 897.487C459.214 892.115 457.549 887.878 455.43 884.7C453.311 881.523 450.814 879.253 447.863 877.891C444.987 876.605 441.96 875.924 438.782 875.924C436.436 875.924 433.939 876.378 431.139 877.286C428.339 878.194 425.841 880.161 423.42 883.112C420.998 886.062 419.031 890.299 417.29 895.747C415.625 901.194 414.641 908.534 414.339 917.688H462.317H462.393Z" fill="#004BB2" stroke="#004BB2" stroke-miterlimit="10"/>
<path d="M610.943 923.59C610.943 933.88 612.003 942.354 614.198 949.163C616.392 955.973 619.116 961.42 622.522 965.43C625.852 969.44 629.484 972.24 633.343 973.904C637.203 975.493 640.835 976.325 644.165 976.325C646.738 976.325 649.008 976.023 651.203 975.342C653.322 974.661 655.214 973.904 656.878 973.072C658.543 972.24 659.905 971.483 660.965 970.802C662.1 970.121 662.933 969.819 663.538 969.819C664.446 969.819 665.127 969.97 665.43 970.273C665.808 970.575 666.187 971.105 666.716 971.937L672.089 980.184C672.619 981.017 672.846 981.697 672.846 982.303C672.846 982.984 672.619 983.589 672.241 983.967C671.862 984.346 671.408 984.724 671.03 985.027C667.7 987.372 663.538 989.793 658.695 992.441C653.851 995.089 648.176 997.359 641.668 999.553C635.16 1001.75 628.046 1003.49 620.1 1004.93C612.154 1006.36 603.527 1007.04 594.219 1007.04C586.576 1007.04 579.009 1006.44 571.365 1005.23C563.722 1004.02 556.457 1002.05 549.495 999.251C542.533 996.527 536.025 992.971 530.047 988.658C524.068 984.346 518.847 979.125 514.457 972.997C510.068 966.868 506.587 959.68 504.014 951.509C501.441 943.337 500.23 934.031 500.23 923.741C500.23 913.451 501.517 904.145 504.014 895.898C506.512 887.727 509.993 880.539 514.457 874.411C518.922 868.282 524.068 863.061 530.047 858.749C536.025 854.436 542.533 850.88 549.495 848.156C556.457 845.433 563.722 843.465 571.365 842.179C579.009 840.893 586.576 840.363 594.219 840.363C602.544 840.363 610.565 840.969 618.284 842.255C626.003 843.541 633.116 845.206 639.7 847.324C646.284 849.443 652.111 851.712 657.408 854.209C662.705 856.706 666.868 859.127 670.122 861.624C670.5 861.927 670.954 862.305 671.332 862.683C671.711 863.061 671.938 863.667 671.938 864.348C671.938 865.029 671.711 865.785 671.181 866.466L665.884 874.713C665.354 875.546 664.976 876.075 664.597 876.378C664.219 876.68 663.614 876.832 662.705 876.832C662.1 876.832 661.268 876.529 660.284 875.924C659.3 875.318 658.014 874.638 656.5 873.881C654.987 873.124 653.17 872.443 651.127 871.762C649.084 871.082 646.814 870.779 644.241 870.779C640.911 870.779 637.279 871.611 633.419 873.276C629.56 874.94 625.927 877.815 622.598 881.901C619.268 885.987 616.468 891.434 614.273 898.244C612.079 905.053 611.019 913.603 611.019 923.817L610.943 923.59Z" fill="#004BB2" stroke="#004BB2" stroke-miterlimit="10"/>
<path d="M484.036 1447.84C452.479 1447.84 426.901 1422.27 426.901 1390.72C426.901 1359.17 474.803 1284.79 484.036 1284.79C493.268 1284.79 541.171 1359.17 541.171 1390.72C541.171 1422.27 515.592 1447.84 484.036 1447.84ZM484.036 1362.57C468.447 1362.57 455.885 1375.21 455.885 1390.72C455.885 1406.23 468.522 1418.86 484.036 1418.86C499.549 1418.86 512.187 1406.23 512.187 1390.72C512.187 1375.21 499.549 1362.57 484.036 1362.57Z" fill="#1D161E" stroke="#1D161E" stroke-width="10" stroke-miterlimit="10"/>
<path d="M524.295 175.003C492.738 175.003 467.16 200.576 467.16 232.127C467.16 263.678 515.063 338.052 524.295 338.052C533.527 338.052 581.43 263.678 581.43 232.127C581.43 200.576 555.852 175.003 524.295 175.003ZM524.295 260.273C508.706 260.273 496.144 247.637 496.144 232.127C496.144 216.617 508.782 203.981 524.295 203.981C539.809 203.981 552.446 216.617 552.446 232.127C552.446 247.637 539.809 260.273 524.295 260.273Z" fill="#1D161E" stroke="#1D161E" stroke-width="10" stroke-miterlimit="10"/>
<path d="M962.758 1290.39C931.202 1290.39 905.623 1264.82 905.623 1233.27C905.623 1201.72 953.526 1127.34 962.758 1127.34C971.991 1127.34 1019.89 1201.72 1019.89 1233.27C1019.89 1264.82 994.315 1290.39 962.758 1290.39ZM962.758 1205.12C947.169 1205.12 934.607 1217.76 934.607 1233.27C934.607 1248.78 947.245 1261.41 962.758 1261.41C978.272 1261.41 990.909 1248.78 990.909 1233.27C990.909 1217.76 978.272 1205.12 962.758 1205.12Z" fill="#1D161E" stroke="#1D161E" stroke-width="10" stroke-miterlimit="10"/>
<path d="M524.295 175.003C492.738 175.003 467.16 200.576 467.16 232.127C467.16 263.678 515.063 338.052 524.295 338.052C533.527 338.052 581.43 263.678 581.43 232.127C581.43 200.576 555.852 175.003 524.295 175.003ZM524.295 260.273C508.706 260.273 496.144 247.637 496.144 232.127C496.144 216.617 508.782 203.981 524.295 203.981C539.809 203.981 552.446 216.617 552.446 232.127C552.446 247.637 539.809 260.273 524.295 260.273Z" fill="#CC0518"/>
<path d="M962.758 1290.39C931.202 1290.39 905.623 1264.82 905.623 1233.27C905.623 1201.72 953.526 1127.34 962.758 1127.34C971.991 1127.34 1019.89 1201.72 1019.89 1233.27C1019.89 1264.82 994.315 1290.39 962.758 1290.39ZM962.758 1205.12C947.169 1205.12 934.607 1217.76 934.607 1233.27C934.607 1248.78 947.245 1261.41 962.758 1261.41C978.272 1261.41 990.909 1248.78 990.909 1233.27C990.909 1217.76 978.272 1205.12 962.758 1205.12Z" fill="#CC0518"/>
<path d="M484.036 1447.84C452.479 1447.84 426.901 1422.27 426.901 1390.72C426.901 1359.17 474.803 1284.79 484.036 1284.79C493.268 1284.79 541.171 1359.17 541.171 1390.72C541.171 1422.27 515.592 1447.84 484.036 1447.84ZM484.036 1362.57C468.447 1362.57 455.885 1375.21 455.885 1390.72C455.885 1406.23 468.522 1418.86 484.036 1418.86C499.549 1418.86 512.187 1406.23 512.187 1390.72C512.187 1375.21 499.549 1362.57 484.036 1362.57Z" fill="#CC0518"/>
</svg>
