<svg width="258" height="204" viewBox="0 0 258 204" fill="none" xmlns="http://www.w3.org/2000/svg">
<rect x="25" y="30.749" width="207.08" height="167.421" rx="10" fill="#E3DFF2" stroke="black" stroke-width="10"/>
<rect x="80" y="5" width="193.165" height="30" rx="10" transform="rotate(90 80 5)" fill="#F9886D" stroke="black" stroke-width="10"/>
<rect x="205" y="5" width="193.165" height="30" rx="10" transform="rotate(90 205 5)" fill="#F9886D" stroke="black" stroke-width="10"/>
<rect x="253" y="43" width="248" height="38" rx="10" transform="rotate(-180 253 43)" fill="#F9886D" stroke="black" stroke-width="10"/>
<path d="M120.727 145V137.24H126.327C129.42 137.24 132.114 136.44 134.407 134.84C136.754 133.24 138.594 130.973 139.927 128.04C141.26 125.107 141.927 121.667 141.927 117.72C141.927 113.667 141.26 110.173 139.927 107.24C138.594 104.307 136.754 102.04 134.407 100.44C132.114 98.84 129.42 98.04 126.327 98.04H120.727V90.44H127.847C133.98 90.44 139.314 91.5067 143.847 93.64C148.38 95.7733 151.9 98.8667 154.407 102.92C156.967 106.973 158.247 111.907 158.247 117.72C158.247 123.533 156.967 128.467 154.407 132.52C151.9 136.573 148.38 139.667 143.847 141.8C139.314 143.933 133.98 145 127.847 145H120.727ZM99.2871 145V137.64H105.527V97.72H99.4471V90.44H120.727V145H99.2871Z" fill="black"/>
</svg>
