<svg width="123" height="188" viewBox="0 0 123 188" fill="none" xmlns="http://www.w3.org/2000/svg">
<rect x="5" y="61" width="113" height="24" rx="5" fill="#F9886D" stroke="black" stroke-width="10"/>
<path d="M34.3045 174.391L21.7512 85H31.1667H61.5H91.8333H101.249L88.6954 174.391C88.0021 179.328 83.7782 183 78.7926 183H61.5H44.2074C39.2218 183 34.9979 179.328 34.3045 174.391Z" fill="white" stroke="black" stroke-width="10"/>
<path d="M53 30C53 16.1929 64.1929 5 78 5H100C105.523 5 110 9.47715 110 15C110 20.5228 105.523 25 100 25H83C77.4772 25 73 29.4772 73 35V61H53V30Z" fill="white" stroke="black" stroke-width="10"/>
</svg>
