<svg width="145" height="180" viewBox="0 0 145 180" fill="none" xmlns="http://www.w3.org/2000/svg">
<rect x="5" y="135" width="123" height="40" rx="10" fill="#D9D9D9" stroke="black" stroke-width="10"/>
<rect x="31" y="5" width="25" height="130" rx="10" fill="#FFDB58" stroke="black" stroke-width="10"/>
<mask id="mask0_139_267" style="mask-type:alpha" maskUnits="userSpaceOnUse" x="26" y="0" width="119" height="97">
<path d="M31 15C31 9.43439 35.523 5.0578 40.8493 5.2632C57.5542 5.90737 67.2829 7.67331 73.4641 9.81193C79.3988 11.8653 82.2243 14.3061 85.1297 17.0187C85.3525 17.2266 85.5773 17.438 85.8051 17.6522C88.7743 20.4443 92.2569 23.7191 98.5643 26.3165C105.174 29.0383 114.602 30.9304 129.733 31.664C135.526 31.9448 140 36.562 140 42V82C140 87.5773 135.488 91.9373 130.181 91.7224C114.104 91.0711 104.064 89.3337 97.2362 87.1808C90.557 85.0747 86.7767 82.5203 83.2021 79.809C82.7092 79.4351 82.2104 79.0495 81.7006 78.6553C78.4432 76.1367 74.7377 73.2718 69.266 70.9298C62.9327 68.2191 54.4639 66.2669 41.3788 65.4389C35.4927 65.0665 31 60.4002 31 55V15Z" fill="#FFDB58" stroke="black" stroke-width="10"/>
</mask>
<g mask="url(#mask0_139_267)">
<path d="M31 15C31 9.43439 35.523 5.0578 40.8493 5.2632C57.5542 5.90737 67.2829 7.67331 73.4641 9.81193C79.3988 11.8653 82.2243 14.3061 85.1297 17.0187C85.3525 17.2266 85.5773 17.438 85.8051 17.6522C88.7743 20.4443 92.2569 23.7191 98.5643 26.3165C105.174 29.0383 114.602 30.9304 129.733 31.664C135.526 31.9448 140 36.562 140 42V82C140 87.5773 135.488 91.9373 130.181 91.7224C114.104 91.0711 104.064 89.3337 97.2362 87.1808C90.557 85.0747 86.7767 82.5203 83.2021 79.809C82.7092 79.4351 82.2104 79.0495 81.7006 78.6553C78.4432 76.1367 74.7377 73.2718 69.266 70.9298C62.9327 68.2191 54.4639 66.2669 41.3788 65.4389C35.4927 65.0665 31 60.4002 31 55V15Z" fill="white" stroke="black" stroke-width="10"/>
<rect x="26" width="42.9474" height="72" fill="#7FBC8C"/>
<rect x="102.947" y="25" width="42.0526" height="68" fill="#F9886D"/>
<path d="M31 15C31 9.43439 35.523 5.0578 40.8493 5.2632C57.5542 5.90737 67.2829 7.67331 73.4641 9.81193C79.3988 11.8653 82.2243 14.3061 85.1297 17.0187C85.3525 17.2266 85.5773 17.438 85.8051 17.6522C88.7743 20.4443 92.2569 23.7191 98.5643 26.3165C105.174 29.0383 114.602 30.9304 129.733 31.664C135.526 31.9448 140 36.562 140 42V82C140 87.5773 135.488 91.9373 130.181 91.7224C114.104 91.0711 104.064 89.3337 97.2362 87.1808C90.557 85.0747 86.7767 82.5203 83.2021 79.809C82.7092 79.4351 82.2104 79.0495 81.7006 78.6553C78.4432 76.1367 74.7377 73.2718 69.266 70.9298C62.9327 68.2191 54.4639 66.2669 41.3788 65.4389C35.4927 65.0665 31 60.4002 31 55V15Z" stroke="black" stroke-width="10"/>
</g>
</svg>
